<?xml version="1.0" encoding="UTF-8" standalone="no"?>
<!-- Created with Inkscape (http://www.inkscape.org/) -->

<svg
   xmlns:dc="http://purl.org/dc/elements/1.1/"
   xmlns:cc="http://creativecommons.org/ns#"
   xmlns:rdf="http://www.w3.org/1999/02/22-rdf-syntax-ns#"
   xmlns:svg="http://www.w3.org/2000/svg"
   xmlns="http://www.w3.org/2000/svg"
   xmlns:sodipodi="http://sodipodi.sourceforge.net/DTD/sodipodi-0.dtd"
   xmlns:inkscape="http://www.inkscape.org/namespaces/inkscape"
   width="82.24762mm"
   height="18.065363mm"
   viewBox="0 0 291.42858 64.011128"
   id="svg4197"
   version="1.1"
   inkscape:version="0.91 r13725"
   sodipodi:docname="Logo.svg">
  <defs
     id="defs4199" />
  <sodipodi:namedview
     id="base"
     pagecolor="#ffffff"
     bordercolor="#666666"
     borderopacity="1.0"
     inkscape:pageopacity="0.0"
     inkscape:pageshadow="2"
     inkscape:zoom="1.979899"
     inkscape:cx="146.98215"
     inkscape:cy="50.303939"
     inkscape:document-units="px"
     inkscape:current-layer="layer1"
     showgrid="false"
     fit-margin-top="0"
     fit-margin-left="0"
     fit-margin-right="0"
     fit-margin-bottom="0"
     inkscape:window-width="1920"
     inkscape:window-height="1056"
     inkscape:window-x="0"
     inkscape:window-y="24"
     inkscape:window-maximized="1" />
  <metadata
     id="metadata4202">
    <rdf:RDF>
      <cc:Work
         rdf:about="">
        <dc:format>image/svg+xml</dc:format>
        <dc:type
           rdf:resource="http://purl.org/dc/dcmitype/StillImage" />
        <dc:title></dc:title>
      </cc:Work>
    </rdf:RDF>
  </metadata>
  <g
     inkscape:label="Layer 1"
     inkscape:groupmode="layer"
     id="layer1"
     transform="translate(-165.7143,-499.9995)">
    <path
       style="opacity:1;fill:#000000;fill-opacity:1;fill-rule:evenodd;stroke:none;stroke-width:5;stroke-linecap:round;stroke-linejoin:round;stroke-miterlimit:4;stroke-dasharray:none;stroke-opacity:1"
       d="m 165.7143,533.54747 291.42856,0 -291.42856,5.00001 z"
       id="rect3340"
       inkscape:connector-curvature="0"
       sodipodi:nodetypes="cccc" />
    <g
       transform="scale(1.0172621,0.98303083)"
       style="font-style:normal;font-weight:normal;font-size:23.42181015px;line-height:125%;font-family:Sans;letter-spacing:0px;word-spacing:0px;opacity:0.98000004;fill:#6e6e6e;fill-opacity:1;stroke:none;stroke-width:1px;stroke-linecap:butt;stroke-linejoin:miter;stroke-opacity:1"
       id="text4142">
      <path
         d="m 165.56077,553.69855 0,6.41584 2.90485,0 q 1.61254,0 2.49315,-0.83486 0.8806,-0.83486 0.8806,-2.37878 0,-1.53248 -0.8806,-2.36734 -0.88061,-0.83486 -2.49315,-0.83486 l -2.90485,0 z m -2.31016,-1.89845 5.21501,0 q 2.87055,0 4.33441,1.30376 1.4753,1.29231 1.4753,3.79689 0,2.52745 -1.4753,3.81977 -1.46386,1.29232 -4.33441,1.29232 l -2.90485,0 0,6.86185 -2.31016,0 0,-17.07459 z"
         style=""
         id="path4810" />
      <path
         d="m 177.29455,551.07961 2.1043,0 0,17.79508 -2.1043,0 0,-17.79508 z"
         style=""
         id="path4812" />
      <path
         d="m 189.61158,562.43598 q -2.55032,0 -3.53385,0.58326 -0.98354,0.58326 -0.98354,1.98994 0,1.12077 0.73194,1.78408 0.74336,0.65188 2.01281,0.65188 1.74977,0 2.80192,-1.23513 1.06359,-1.24657 1.06359,-3.30513 l 0,-0.4689 -2.09287,0 z m 4.19717,-0.86916 0,7.30787 -2.1043,0 0,-1.94419 q -0.72049,1.16652 -1.79552,1.7269 -1.07502,0.54895 -2.63038,0.54895 -1.96706,0 -3.13358,-1.0979 -1.15508,-1.10933 -1.15508,-2.96203 0,-2.16149 1.44099,-3.25938 1.45243,-1.0979 4.32297,-1.0979 l 2.9506,0 0,-0.20586 q 0,-1.45242 -0.96066,-2.24154 -0.94922,-0.80055 -2.67612,-0.80055 -1.0979,0 -2.13862,0.26304 -1.04071,0.26304 -2.00137,0.78911 l 0,-1.94419 q 1.15508,-0.44602 2.24154,-0.66331 1.08646,-0.22873 2.11574,-0.22873 2.77905,0 4.15142,1.44099 1.37237,1.44099 1.37237,4.36872 z"
         style=""
         id="path4814" />
      <path
         d="m 203.48397,570.06408 q -0.89204,2.28729 -1.73833,2.98491 -0.8463,0.69762 -2.26442,0.69762 l -1.68115,0 0,-1.76121 1.23513,0 q 0.86917,0 1.3495,-0.41171 0.48033,-0.41171 1.06359,-1.94419 l 0.3774,-0.96066 -5.1807,-12.60295 2.2301,0 4.00275,10.01832 4.00275,-10.01832 2.23011,0 -5.62673,13.99819 z"
         style=""
         id="path4816" />
      <path
         d="m 219.76945,559.29097 2.41309,0 0,2.90485 -2.41309,0 0,-2.90485 z"
         style=""
         id="path4818" />
      <path
         d="m 234.4767,551.8001 10.79599,0 0,1.9442 -8.48583,0 0,5.0549 8.1313,0 0,1.94419 -8.1313,0 0,6.18711 8.69169,0 0,1.94419 -11.00185,0 0,-17.07459 z"
         style=""
         id="path4820" />
      <path
         d="m 259.85414,556.06589 -4.63175,6.23286 4.87192,6.57594 -2.48171,0 -3.72827,-5.03202 -3.72828,5.03202 -2.4817,0 4.97484,-6.70174 -4.5517,-6.10706 2.48171,0 3.39662,4.56314 3.39662,-4.56314 2.4817,0 z"
         style=""
         id="path4822" />
      <path
         d="m 265.10347,566.95337 0,6.79324 -2.11574,0 0,-17.68072 2.11574,0 0,1.9442 q 0.66331,-1.14365 1.66971,-1.6926 1.01785,-0.56038 2.42453,-0.56038 2.33303,0 3.78546,1.8527 1.46386,1.8527 1.46386,4.87192 0,3.01922 -1.46386,4.87192 -1.45243,1.8527 -3.78546,1.8527 -1.40668,0 -2.42453,-0.54895 -1.0064,-0.56038 -1.66971,-1.70403 z m 7.1592,-4.47164 q 0,-2.3216 -0.96066,-3.63678 -0.94922,-1.32663 -2.61894,-1.32663 -1.66972,0 -2.63038,1.32663 -0.94922,1.31518 -0.94922,3.63678 0,2.3216 0.94922,3.64822 0.96066,1.31519 2.63038,1.31519 1.66972,0 2.61894,-1.31519 0.96066,-1.32662 0.96066,-3.64822 z"
         style=""
         id="path4824" />
      <path
         d="m 288.89124,561.94422 0,1.02928 -9.67522,0 q 0.13723,2.17292 1.30375,3.31656 1.17795,1.13221 3.27082,1.13221 1.21226,0 2.34447,-0.29735 1.14364,-0.29735 2.26441,-0.89204 l 0,1.98994 q -1.13221,0.48033 -2.32159,0.73193 -1.18939,0.2516 -2.41309,0.2516 -3.06497,0 -4.86048,-1.78408 -1.78409,-1.78409 -1.78409,-4.82618 0,-3.14501 1.69259,-4.98628 1.70403,-1.8527 4.58601,-1.8527 2.58464,0 4.08281,1.66972 1.50961,1.65828 1.50961,4.51739 z m -2.10431,-0.61757 q -0.0229,-1.7269 -0.97209,-2.75618 -0.93779,-1.02928 -2.49314,-1.02928 -1.76122,0 -2.8248,0.99497 -1.05215,0.99497 -1.21226,2.80193 l 7.50229,-0.0114 z"
         style=""
         id="path4826" />
      <path
         d="m 299.76729,558.03296 q -0.35453,-0.20586 -0.77768,-0.29735 -0.41171,-0.10293 -0.91491,-0.10293 -1.78408,0 -2.74474,1.16652 -0.94923,1.15508 -0.94923,3.328 l 0,6.74749 -2.11574,0 0,-12.8088 2.11574,0 0,1.98994 q 0.66332,-1.16651 1.7269,-1.7269 1.06359,-0.57182 2.58464,-0.57182 0.21729,0 0.48033,0.0343 0.26304,0.0229 0.58326,0.0801 l 0.0114,2.16149 z"
         style=""
         id="path4828" />
      <path
         d="m 301.99739,556.06589 2.10431,0 0,12.8088 -2.10431,0 0,-12.8088 z m 0,-4.98628 2.10431,0 0,2.66469 -2.10431,0 0,-2.66469 z"
         style=""
         id="path4830" />
      <path
         d="m 319.44939,561.94422 0,1.02928 -9.67522,0 q 0.13724,2.17292 1.30375,3.31656 1.17795,1.13221 3.27082,1.13221 1.21226,0 2.34447,-0.29735 1.14364,-0.29735 2.26441,-0.89204 l 0,1.98994 q -1.1322,0.48033 -2.32159,0.73193 -1.18939,0.2516 -2.41309,0.2516 -3.06496,0 -4.86048,-1.78408 -1.78409,-1.78409 -1.78409,-4.82618 0,-3.14501 1.69259,-4.98628 1.70403,-1.8527 4.58601,-1.8527 2.58464,0 4.08281,1.66972 1.50961,1.65828 1.50961,4.51739 z m -2.1043,-0.61757 q -0.0229,-1.7269 -0.9721,-2.75618 -0.93779,-1.02928 -2.49314,-1.02928 -1.76121,0 -2.8248,0.99497 -1.05215,0.99497 -1.21226,2.80193 l 7.5023,-0.0114 z"
         style=""
         id="path4832" />
      <path
         d="m 333.5505,561.14367 0,7.73102 -2.1043,0 0,-7.6624 q 0,-1.8184 -0.70906,-2.72187 -0.70906,-0.90348 -2.12718,-0.90348 -1.70402,0 -2.68756,1.08646 -0.98353,1.08646 -0.98353,2.96203 l 0,7.23926 -2.11574,0 0,-12.8088 2.11574,0 0,1.98994 q 0.7548,-1.15508 1.77265,-1.7269 1.02927,-0.57182 2.36734,-0.57182 2.20723,0 3.33943,1.37237 1.13221,1.36094 1.13221,4.01419 z"
         style=""
         id="path4834" />
      <path
         d="m 346.9883,556.55766 0,1.96707 q -0.89204,-0.49177 -1.79552,-0.73194 -0.89204,-0.2516 -1.80695,-0.2516 -2.04712,0 -3.17933,1.30376 -1.13221,1.29231 -1.13221,3.63678 0,2.34447 1.13221,3.64822 1.13221,1.29232 3.17933,1.29232 0.91491,0 1.80695,-0.24017 0.90348,-0.2516 1.79552,-0.74336 l 0,1.94419 q -0.8806,0.41171 -1.82983,0.61757 -0.93778,0.20585 -2.00137,0.20585 -2.89342,0 -4.59745,-1.81839 -1.70402,-1.81839 -1.70402,-4.90623 0,-3.13358 1.71546,-4.9291 1.7269,-1.79552 4.72325,-1.79552 0.97209,0 1.89844,0.20585 0.92635,0.19442 1.79552,0.5947 z"
         style=""
         id="path4836" />
      <path
         d="m 361.62694,561.94422 0,1.02928 -9.67522,0 q 0.13724,2.17292 1.30375,3.31656 1.17795,1.13221 3.27082,1.13221 1.21226,0 2.34447,-0.29735 1.14364,-0.29735 2.26441,-0.89204 l 0,1.98994 q -1.1322,0.48033 -2.32159,0.73193 -1.18939,0.2516 -2.41309,0.2516 -3.06496,0 -4.86048,-1.78408 -1.78409,-1.78409 -1.78409,-4.82618 0,-3.14501 1.6926,-4.98628 1.70402,-1.8527 4.586,-1.8527 2.58464,0 4.08281,1.66972 1.50961,1.65828 1.50961,4.51739 z m -2.1043,-0.61757 q -0.0229,-1.7269 -0.9721,-2.75618 -0.93779,-1.02928 -2.49314,-1.02928 -1.76121,0 -2.8248,0.99497 -1.05215,0.99497 -1.21226,2.80193 l 7.5023,-0.0114 z"
         style=""
         id="path4838" />
      <path
         d="m 372.83464,559.29097 2.41309,0 0,2.90485 -2.41309,0 0,-2.90485 z"
         style=""
         id="path4840" />
      <path
         d="m 387.54189,551.8001 2.31016,0 0,15.1304 8.31428,0 0,1.94419 -10.62444,0 0,-17.07459 z"
         style=""
         id="path4842" />
      <path
         d="m 411.03232,561.94422 0,1.02928 -9.67522,0 q 0.13724,2.17292 1.30375,3.31656 1.17795,1.13221 3.27082,1.13221 1.21226,0 2.34447,-0.29735 1.14364,-0.29735 2.26441,-0.89204 l 0,1.98994 q -1.1322,0.48033 -2.32159,0.73193 -1.18939,0.2516 -2.41309,0.2516 -3.06496,0 -4.86048,-1.78408 -1.78409,-1.78409 -1.78409,-4.82618 0,-3.14501 1.6926,-4.98628 1.70402,-1.8527 4.58601,-1.8527 2.58463,0 4.0828,1.66972 1.50961,1.65828 1.50961,4.51739 z m -2.1043,-0.61757 q -0.0229,-1.7269 -0.9721,-2.75618 -0.93779,-1.02928 -2.49314,-1.02928 -1.76121,0 -2.8248,0.99497 -1.05215,0.99497 -1.21226,2.80193 l 7.5023,-0.0114 z"
         style=""
         id="path4844" />
      <path
         d="m 420.30726,562.43598 q -2.55032,0 -3.53386,0.58326 -0.98353,0.58326 -0.98353,1.98994 0,1.12077 0.73193,1.78408 0.74337,0.65188 2.01281,0.65188 1.74978,0 2.80193,-1.23513 1.06359,-1.24657 1.06359,-3.30513 l 0,-0.4689 -2.09287,0 z m 4.19717,-0.86916 0,7.30787 -2.1043,0 0,-1.94419 q -0.7205,1.16652 -1.79552,1.7269 -1.07503,0.54895 -2.63038,0.54895 -1.96707,0 -3.13358,-1.0979 -1.15508,-1.10933 -1.15508,-2.96203 0,-2.16149 1.44099,-3.25938 1.45242,-1.0979 4.32297,-1.0979 l 2.9506,0 0,-0.20586 q 0,-1.45242 -0.96066,-2.24154 -0.94923,-0.80055 -2.67613,-0.80055 -1.0979,0 -2.13861,0.26304 -1.04072,0.26304 -2.00138,0.78911 l 0,-1.94419 q 1.15508,-0.44602 2.24154,-0.66331 1.08646,-0.22873 2.11574,-0.22873 2.77906,0 4.15143,1.44099 1.37237,1.44099 1.37237,4.36872 z"
         style=""
         id="path4846" />
      <path
         d="m 436.27253,558.03296 q -0.35453,-0.20586 -0.77768,-0.29735 -0.41171,-0.10293 -0.91492,-0.10293 -1.78408,0 -2.74474,1.16652 -0.94922,1.15508 -0.94922,3.328 l 0,6.74749 -2.11574,0 0,-12.8088 2.11574,0 0,1.98994 q 0.66331,-1.16651 1.7269,-1.7269 1.06359,-0.57182 2.58463,-0.57182 0.21729,0 0.48033,0.0343 0.26304,0.0229 0.58326,0.0801 l 0.0114,2.16149 z"
         style=""
         id="path4848" />
      <path
         d="m 448.73823,561.14367 0,7.73102 -2.1043,0 0,-7.6624 q 0,-1.8184 -0.70906,-2.72187 -0.70906,-0.90348 -2.12718,-0.90348 -1.70403,0 -2.68756,1.08646 -0.98353,1.08646 -0.98353,2.96203 l 0,7.23926 -2.11574,0 0,-12.8088 2.11574,0 0,1.98994 q 0.7548,-1.15508 1.77264,-1.7269 1.02928,-0.57182 2.36735,-0.57182 2.20723,0 3.33943,1.37237 1.13221,1.36094 1.13221,4.01419 z"
         style=""
         id="path4850" />
    </g>
    <g
       style="font-style:normal;font-variant:normal;font-weight:normal;font-stretch:normal;font-size:40.79276276px;line-height:125%;font-family:'Bitstream Vera Sans Mono';-inkscape-font-specification:'Bitstream Vera Sans Mono';letter-spacing:0px;word-spacing:0px;fill:#000000;fill-opacity:1;stroke:none;stroke-width:1px;stroke-linecap:butt;stroke-linejoin:miter;stroke-opacity:1"
       id="text4230">
      <path
         d="m 177.93942,504.08277 -4.2426,15.21761 8.48521,0 -4.24261,-15.21761 z m -2.43004,-3.54546 4.88,0 9.10268,29.73808 -4.16293,0 -2.19102,-7.74823 -10.41729,0 -2.15118,7.74823 -4.16294,0 9.10268,-29.73808 z"
         style=""
         id="path4787" />
      <path
         d="m 222.69593,503.84375 0,11.17419 4.6609,0 q 2.78856,0 4.34219,-1.47396 1.57355,-1.47395 1.57355,-4.12309 0,-2.64914 -1.55363,-4.10318 -1.55363,-1.47396 -4.36211,-1.47396 l -4.6609,0 z m -4.0235,-3.30644 8.6844,0 q 4.97958,0 7.54905,2.27069 2.56946,2.25077 2.56946,6.61289 0,4.40195 -2.56946,6.65272 -2.54955,2.25078 -7.54905,2.25078 l -4.6609,0 0,11.951 -4.0235,0 0,-29.73808 z"
         style=""
         id="path4789" />
      <path
         d="m 257.31401,515.43623 q 0,-6.55314 -1.35445,-9.36162 -1.33453,-2.80849 -4.40195,-2.80849 -3.04751,0 -4.40195,2.80849 -1.33453,2.80848 -1.33453,9.36162 0,6.53321 1.33453,9.3417 1.35444,2.80848 4.40195,2.80848 3.06742,0 4.40195,-2.78856 1.35445,-2.80849 1.35445,-9.36162 z m 4.20277,0 q 0,7.76815 -2.46988,11.59247 -2.44995,3.82432 -7.48929,3.82432 -5.03934,0 -7.4893,-3.8044 -2.44995,-3.8044 -2.44995,-11.61239 0,-7.78807 2.44995,-11.6124 2.46988,-3.82432 7.4893,-3.82432 5.03934,0 7.48929,3.82432 2.46988,3.82433 2.46988,11.6124 z"
         style=""
         id="path4791" />
      <path
         d="m 283.98467,501.55314 0,4.08326 q -1.83249,-1.17518 -3.68489,-1.77273 -1.83249,-0.59755 -3.70481,-0.59755 -2.84833,0 -4.50155,1.33453 -1.65322,1.31461 -1.65322,3.56538 0,1.97192 1.07559,3.00767 1.09551,1.03576 4.06334,1.7329 l 2.11134,0.47804 q 4.18286,0.976 6.09502,3.06742 1.91216,2.09143 1.91216,5.69665 0,4.2426 -2.62922,6.47346 -2.62922,2.23085 -7.64865,2.23085 -2.09142,0 -4.20277,-0.45812 -2.11134,-0.4382 -4.2426,-1.33453 l 0,-4.28244 q 2.29061,1.45404 4.32228,2.13126 2.05159,0.67722 4.12309,0.67722 3.04751,0 4.74057,-1.35444 1.69306,-1.37437 1.69306,-3.82432 0,-2.23086 -1.17518,-3.40604 -1.15527,-1.17518 -4.04343,-1.81257 l -2.15118,-0.49796 q -4.14301,-0.93616 -6.01534,-2.8284 -1.87232,-1.89224 -1.87232,-5.07918 0,-3.98367 2.66906,-6.37387 2.68897,-2.41012 7.13076,-2.41012 1.71298,0 3.60522,0.39837 1.89224,0.37845 3.98367,1.15526 z"
         style=""
         id="path4793" />
      <path
         d="m 289.30287,500.53731 22.68699,0 0,3.38612 -9.30187,0 0,26.35196 -4.04342,0 0,-26.35196 -9.3417,0 0,-3.38612 z"
         style=""
         id="path4795" />
      <path
         d="m 316.83001,500.53731 17.64765,0 0,3.38612 -13.62414,0 0,8.8039 13.02659,0 0,3.38612 -13.02659,0 0,10.77582 14.00259,0 0,3.38612 -18.0261,0 0,-29.73808 z"
         style=""
         id="path4797" />
      <path
         d="m 352.58343,516.23296 q 1.55364,0.39837 2.64914,1.51379 1.09551,1.09551 2.72882,4.40196 l 4.04342,8.12668 -4.32228,0 -3.54546,-7.50921 q -1.53372,-3.20686 -2.76865,-4.1231 -1.21502,-0.93616 -3.18694,-0.93616 l -3.84424,0 0,12.56847 -4.04342,0 0,-29.73808 8.28603,0 q 4.89991,0 7.50921,2.21093 2.60931,2.21094 2.60931,6.39379 0,2.94792 -1.61339,4.82024 -1.59347,1.8524 -4.50155,2.27069 z m -8.24619,-12.38921 0,10.55672 4.40196,0 q 2.88815,0 4.30236,-1.29469 1.4142,-1.29469 1.4142,-3.96375 0,-2.56947 -1.51379,-3.92391 -1.49388,-1.37437 -4.36212,-1.37437 l -4.24261,0 z"
         style=""
         id="path4799" />
      <path
         d="m 365.98848,500.53731 16.51231,0 0,3.38612 -6.23445,0 0,22.96584 6.23445,0 0,3.38612 -16.51231,0 0,-3.38612 6.23444,0 0,-22.96584 -6.23444,0 0,-3.38612 z"
         style=""
         id="path4801" />
      <path
         d="m 404.55039,515.43623 q 0,-6.55314 -1.35445,-9.36162 -1.33453,-2.80849 -4.40195,-2.80849 -3.04751,0 -4.40195,2.80849 -1.33453,2.80848 -1.33453,9.36162 0,6.53321 1.33453,9.3417 1.35444,2.80848 4.40195,2.80848 3.06742,0 4.40195,-2.78856 1.35445,-2.80849 1.35445,-9.36162 z m 4.20277,0 q 0,7.76815 -2.46987,11.59247 -2.44996,3.82432 -7.4893,3.82432 -5.03934,0 -7.4893,-3.8044 -2.44995,-3.8044 -2.44995,-11.61239 0,-7.78807 2.44995,-11.6124 2.46988,-3.82432 7.4893,-3.82432 5.03934,0 7.4893,3.82432 2.46987,3.82433 2.46987,11.6124 z"
         style=""
         id="path4803" />
      <path
         d="m 426.20163,516.23296 q 1.55363,0.39837 2.64914,1.51379 1.09551,1.09551 2.72881,4.40196 l 4.04342,8.12668 -4.32228,0 -3.54546,-7.50921 q -1.53371,-3.20686 -2.76865,-4.1231 -1.21502,-0.93616 -3.18693,-0.93616 l -3.84424,0 0,12.56847 -4.04343,0 0,-29.73808 8.28603,0 q 4.89991,0 7.50922,2.21093 2.6093,2.21094 2.6093,6.39379 0,2.94792 -1.61339,4.82024 -1.59346,1.8524 -4.50154,2.27069 z m -8.24619,-12.38921 0,10.55672 4.40195,0 q 2.88816,0 4.30236,-1.29469 1.4142,-1.29469 1.4142,-3.96375 0,-2.56947 -1.51379,-3.92391 -1.49388,-1.37437 -4.36212,-1.37437 l -4.2426,0 z"
         style=""
         id="path4805" />
      <path
         d="m 439.60666,500.53731 16.5123,0 0,3.38612 -6.23444,0 0,22.96584 6.23444,0 0,3.38612 -16.5123,0 0,-3.38612 6.23444,0 0,-22.96584 -6.23444,0 0,-3.38612 z"
         style=""
         id="path4807" />
    </g>
  </g>
</svg>
